<?xml version="1.0" standalone="no"?>
<!DOCTYPE svg PUBLIC "-//W3C//DTD SVG 20010904//EN"
 "http://www.w3.org/TR/2001/REC-SVG-20010904/DTD/svg10.dtd">
<svg version="1.0" xmlns="http://www.w3.org/2000/svg"
 width="148.000000pt" height="148.000000pt" viewBox="0 0 148.000000 148.000000"
 preserveAspectRatio="xMidYMid meet">
<metadata>
Created by potrace 1.14, written by Peter Selinger 2001-2017
</metadata>
<g transform="translate(0.000000,148.000000) scale(0.100000,-0.100000)"
fill="#000000" stroke="none">
<path d="M382 1184 c-39 -23 -50 -39 -105 -155 -34 -71 -68 -129 -75 -129 -7
0 -24 -11 -37 -25 -24 -24 -25 -28 -25 -180 0 -165 9 -207 49 -220 16 -5 19
-18 23 -96 4 -81 7 -92 31 -117 23 -23 35 -26 88 -27 54 0 63 3 85 28 21 25
24 38 24 113 l0 84 300 0 300 0 0 -83 c0 -98 12 -121 72 -138 51 -13 106 -4
136 24 20 18 22 30 22 111 l1 91 32 20 32 20 3 169 c3 183 -3 209 -51 221 -18
5 -35 31 -73 113 -27 59 -62 122 -79 141 -52 59 -63 61 -402 61 l-308 0 -43
-26z m690 -71 c9 -10 37 -60 62 -110 l46 -93 -440 0 -440 0 46 93 c25 50 53
100 62 110 14 15 43 17 332 17 289 0 318 -2 332 -17z m-644 -295 c17 -17 15
-103 -2 -117 -9 -8 -47 -11 -107 -9 l-94 3 -3 54 c-2 29 -1 60 2 67 7 18 186
20 204 2z m827 -58 l0 -65 -94 -3 c-60 -2 -98 1 -107 9 -18 14 -19 100 -2 117
9 9 42 12 108 10 l95 -3 0 -65z m-365 -185 l0 -35 -150 0 -150 0 0 35 0 35
150 0 150 0 0 -35z"/>
</g>
</svg>
